<svg xmlns="http://www.w3.org/2000/svg" width="152" height="152" viewBox="0 0 512 512">
  <defs>
    <linearGradient id="bg" x1="0%" y1="0%" x2="100%" y2="100%">
      <stop offset="0%" style="stop-color:#0f172a"/>
      <stop offset="100%" style="stop-color:#1e293b"/>
    </linearGradient>
    <linearGradient id="heart" x1="0%" y1="0%" x2="100%" y2="100%">
      <stop offset="0%" style="stop-color:#22d3ee"/>
      <stop offset="100%" style="stop-color:#3b82f6"/>
    </linearGradient>
  </defs>
  <rect width="512" height="512" rx="128" fill="url(#bg)"/>
  <path d="M256 120c-40 0-72 25-88 60-16-8-35-12-54-8-42 8-72 45-68 88 4 43 40 76 83 76h254c43 0 79-33 83-76 4-43-26-80-68-88-19-4-38 0-54 8-16-35-48-60-88-60z" fill="url(#heart)" opacity="0.9"/>
  <path d="M256 160c-28 0-52 18-64 42-12-6-26-8-40-6-32 5-55 34-52 66 3 32 30 57 62 57h188c32 0 59-25 62-57 3-32-20-61-52-66-14-2-28 0-40 6-12-24-36-42-64-42z" fill="#0f172a" opacity="0.3"/>
  <circle cx="256" cy="360" r="16" fill="#22d3ee"/>
  <circle cx="200" cy="380" r="12" fill="#3b82f6"/>
  <circle cx="312" cy="380" r="12" fill="#3b82f6"/>
</svg>